D:\school\WTK\thesis\model\3dpredictsim\Results\Batchsim_tmt_linear\Pog_s1_tmt_bCst_d05_k250_ig24_act_GRF.mot
nRows=27
nColumns=19

name D:\school\WTK\thesis\model\3dpredictsim\Results\Batchsim_tmt_linear\Pog_s1_tmt_bCst_d05_k250_ig24_act_GRF.mot
datacolumns 19
datarows 27
range 0.6258341764 0.9512679482
endheader
time 	ground_force_vx	ground_force_vy	ground_force_vz	ground_force_px	ground_force_py	ground_force_pz	1_ground_force_vx	1_ground_force_vy	1_ground_force_vz	1_ground_force_px	1_ground_force_py	1_ground_force_pz	ground_torque_x	ground_torque_y	ground_torque_z	1_ground_torque_x	1_ground_torque_y	1_ground_torque_z
        0.6258341764	       76.9864797303	      372.7705523213	        0.8806935983	        0.4147979882	        0.0000000000	        0.0274268944	      -30.6275733733	       24.4943730655	       -7.7291962544	        0.9674549230	        0.0000000000	       -0.0541103909	        0.0000000000	        0.0000000000	        0.0000000000	        0.0000000000	        0.0000000000	        0.0000000000	
        0.6383508600	       50.0258129088	      269.9805486212	       11.0029752972	        0.4263305331	        0.0000000000	        0.0228682007	      -99.6723406303	      104.5854262394	      -39.1798089345	        0.9749640683	        0.0000000000	       -0.0522964833	        0.0000000000	        0.0000000000	        0.0000000000	        0.0000000000	        0.0000000000	        0.0000000000	
        0.6508675435	       34.3358745279	      216.2774314874	       17.2510582224	        0.4346556029	        0.0000000000	        0.0191088334	      -50.1406662120	      295.9526804969	      -16.4060523712	        0.9801665176	        0.0000000000	       -0.0504231783	        0.0000000000	        0.0000000000	        0.0000000000	        0.0000000000	        0.0000000000	        0.0000000000	
        0.6633842270	       30.6393122574	      182.5457790266	       17.6268197128	        0.4346089238	        0.0000000000	        0.0192177259	      -52.9637613731	      519.9381994047	        5.4853272877	        0.9834238307	        0.0000000000	       -0.0502264089	        0.0000000000	        0.0000000000	        0.0000000000	        0.0000000000	        0.0000000000	        0.0000000000	
        0.6759009105	       22.6253618969	      133.5168532599	       17.5603340366	        0.4347726234	        0.0000000000	        0.0193427952	     -100.6673760947	      761.9902138765	       19.4127018263	        0.9932935119	        0.0000000000	       -0.0521088830	        0.0000000000	        0.0000000000	        0.0000000000	        0.0000000000	        0.0000000000	        0.0000000000	
        0.6884175941	        6.9763442711	       67.8175844751	       17.6373019222	        0.4344622052	        0.0000000000	        0.0201616598	     -137.3934641496	      911.1583222075	       20.7643617038	        1.0016000960	        0.0000000000	       -0.0538163091	        0.0000000000	        0.0000000000	        0.0000000000	        0.0000000000	        0.0000000000	        0.0000000000	
        0.7009342776	      -10.9027547898	       13.5195583582	        5.3984739324	        0.4285373940	        0.0000000000	        0.0202130927	     -138.9409607552	      933.8295527633	       22.2603733532	        1.0069538947	        0.0000000000	       -0.0547098989	        0.0000000000	        0.0000000000	        0.0000000000	        0.0000000000	        0.0000000000	        0.0000000000	
        0.7134509611	      -13.0946038290	       10.5594746272	       -0.2201171637	        0.4359833845	        0.0000000000	        0.0168265488	     -125.4902754538	      887.7362428217	       20.7864890581	        1.0110913070	        0.0000000000	       -0.0551926228	        0.0000000000	        0.0000000000	        0.0000000000	        0.0000000000	        0.0000000000	        0.0000000000	
        0.7259676447	      -16.3949125533	       11.4004439087	       -0.5638310599	        0.4519419072	        0.0000000000	        0.0175402093	     -110.3054879431	      829.4645348274	       20.1070990558	        1.0154587700	        0.0000000000	       -0.0552659368	        0.0000000000	        0.0000000000	        0.0000000000	        0.0000000000	        0.0000000000	        0.0000000000	
        0.7384843282	      -16.6935097268	       10.2998116819	       -1.0260362666	        0.4728328122	        0.0000000000	        0.0186699134	      -97.0799414687	      779.0742498347	       19.7337196791	        1.0204758053	        0.0000000000	       -0.0550321968	        0.0000000000	        0.0000000000	        0.0000000000	        0.0000000000	        0.0000000000	        0.0000000000	
        0.7510010117	      -13.2909909632	        7.4952593648	       -1.0254811128	        0.0000000000	        0.0000000000	        0.0000000000	      -88.1197299439	      746.3794597350	       20.2685515504	        1.0269169674	        0.0000000000	       -0.0544071285	        0.0000000000	        0.0000000000	        0.0000000000	        0.0000000000	        0.0000000000	        0.0000000000	
        0.7635176952	       -8.8770113529	        4.6790991200	       -0.7716674262	        0.0000000000	        0.0000000000	        0.0000000000	      -79.8154854969	      719.1886136389	       20.1515899993	        1.0335482970	        0.0000000000	       -0.0536528331	        0.0000000000	        0.0000000000	        0.0000000000	        0.0000000000	        0.0000000000	        0.0000000000	
        0.7760343788	       -6.0577489262	        3.0689116273	       -0.5249326679	        0.0000000000	        0.0000000000	        0.0000000000	      -70.9508020616	      691.9210909192	       20.2716021574	        1.0396267181	        0.0000000000	       -0.0530315437	        0.0000000000	        0.0000000000	        0.0000000000	        0.0000000000	        0.0000000000	        0.0000000000	
        0.7885510623	       -4.5914641714	        2.2564598037	       -0.3903512803	        0.0000000000	        0.0000000000	        0.0000000000	      -61.4867799309	      667.7331586202	       20.7809095084	        1.0457378210	        0.0000000000	       -0.0524908062	        0.0000000000	        0.0000000000	        0.0000000000	        0.0000000000	        0.0000000000	        0.0000000000	
        0.8010677458	       -3.4938624884	        1.6749955962	       -0.2969098841	        0.0000000000	        0.0000000000	        0.0000000000	      -53.5819026306	      647.7972743349	       21.6471487490	        1.0524876260	        0.0000000000	       -0.0518962647	        0.0000000000	        0.0000000000	        0.0000000000	        0.0000000000	        0.0000000000	        0.0000000000	
        0.8135844294	       -2.5643398038	        1.2040035590	       -0.2173434319	        0.0000000000	        0.0000000000	        0.0000000000	      -47.4323919275	      632.1650469932	       21.9999114997	        1.0597695546	        0.0000000000	       -0.0512157470	        0.0000000000	        0.0000000000	        0.0000000000	        0.0000000000	        0.0000000000	        0.0000000000	
        0.8261011129	       -1.8600436252	        0.8579108113	       -0.1569669233	        0.0000000000	        0.0000000000	        0.0000000000	      -42.3630382424	      620.4717207157	       21.7693001992	        1.0674844527	        0.0000000000	       -0.0504269132	        0.0000000000	        0.0000000000	        0.0000000000	        0.0000000000	        0.0000000000	        0.0000000000	
        0.8386177964	       -1.3737734717	        0.6230655938	       -0.1149337817	        0.0000000000	        0.0000000000	        0.0000000000	      -38.2938479070	      611.7805092337	       21.2047948457	        1.0754590857	        0.0000000000	       -0.0495389666	        0.0000000000	        0.0000000000	        0.0000000000	        0.0000000000	        0.0000000000	        0.0000000000	
        0.8511344799	       -1.0658830846	        0.4753273820	       -0.0875144477	        0.0000000000	        0.0000000000	        0.0000000000	      -34.6366618180	      605.1645420628	       19.8864038276	        1.0833286180	        0.0000000000	       -0.0486155910	        0.0000000000	        0.0000000000	        0.0000000000	        0.0000000000	        0.0000000000	        0.0000000000	
        0.8636511635	       -0.8898708626	        0.3899731015	       -0.0706803864	        0.0000000000	        0.0000000000	        0.0000000000	      -30.9372936664	      599.7608019834	       18.1628729509	        1.0909278355	        0.0000000000	       -0.0476872004	        0.0000000000	        0.0000000000	        0.0000000000	        0.0000000000	        0.0000000000	        0.0000000000	
        0.8761678470	       -0.8011217328	        0.3449907321	       -0.0607134443	        0.0000000000	        0.0000000000	        0.0000000000	      -27.1594405114	      594.5601317758	       16.9832753266	        1.0982399919	        0.0000000000	       -0.0467571121	        0.0000000000	        0.0000000000	        0.0000000000	        0.0000000000	        0.0000000000	        0.0000000000	
        0.8886845305	       -0.7712165854	        0.3265253966	       -0.0553825790	        0.0000000000	        0.0000000000	        0.0000000000	      -23.5721516772	      589.1401899832	       16.3939390626	        1.1053128514	        0.0000000000	       -0.0458204762	        0.0000000000	        0.0000000000	        0.0000000000	        0.0000000000	        0.0000000000	        0.0000000000	
        0.9012012141	       -0.7830894376	        0.3262916435	       -0.0534717786	        0.0000000000	        0.0000000000	        0.0000000000	      -20.4091239815	      583.1723711290	       16.2605752028	        1.1121274501	        0.0000000000	       -0.0448857285	        0.0000000000	        0.0000000000	        0.0000000000	        0.0000000000	        0.0000000000	        0.0000000000	
        0.9137178976	       -0.8268889374	        0.3395030438	       -0.0540040336	        0.0000000000	        0.0000000000	        0.0000000000	      -17.2012718489	      577.2007214730	       16.2869075040	        1.1187164807	        0.0000000000	       -0.0439519603	        0.0000000000	        0.0000000000	        0.0000000000	        0.0000000000	        0.0000000000	        0.0000000000	
        0.9262345811	       -0.8971012575	        0.3634181946	       -0.0561186528	        0.0000000000	        0.0000000000	        0.0000000000	      -13.6864007867	      571.2418586946	       16.2211754628	        1.1250890118	        0.0000000000	       -0.0430168932	        0.0000000000	        0.0000000000	        0.0000000000	        0.0000000000	        0.0000000000	        0.0000000000	
        0.9387512646	       -1.0050044779	        0.4019548445	       -0.0596810761	        0.0000000000	        0.0000000000	        0.0000000000	       -9.8588872867	      564.2519799393	       15.7649321119	        1.1311581698	        0.0000000000	       -0.0420985981	        0.0000000000	        0.0000000000	        0.0000000000	        0.0000000000	        0.0000000000	        0.0000000000	
        0.9512679482	       -1.1821814337	        0.4668903970	       -0.0653000266	        0.0000000000	        0.0000000000	        0.0000000000	       -5.8530149251	      558.1684158130	       14.7336226817	        1.1369210660	        0.0000000000	       -0.0411921621	        0.0000000000	        0.0000000000	        0.0000000000	        0.0000000000	        0.0000000000	        0.0000000000	
